<svg width="1045" height="714" viewBox="0 0 1045 714" fill="none" xmlns="http://www.w3.org/2000/svg">
<g opacity="0.5">
<rect y="0.499967" width="99" height="99" transform="matrix(0.866044 0.499967 -0.866044 0.499967 1126.31 -74.6151)" stroke="#141414" stroke-opacity="0.1"/>
<rect y="0.499967" width="99" height="99" transform="matrix(0.866044 0.499967 -0.866044 0.499967 953.102 -74.6151)" stroke="#141414" stroke-opacity="0.1"/>
<rect y="0.499967" width="99" height="99" transform="matrix(0.866044 0.499967 -0.866044 0.499967 1039.71 -24.6184)" stroke="#141414" stroke-opacity="0.1"/>
<rect y="0.499967" width="99" height="99" transform="matrix(0.866044 0.499967 -0.866044 0.499967 1126.31 25.3784)" stroke="#141414" stroke-opacity="0.1"/>
<rect y="0.499967" width="99" height="99" transform="matrix(0.866044 0.499967 -0.866044 0.499967 779.893 -74.6151)" stroke="#141414" stroke-opacity="0.1"/>
<rect y="0.499967" width="99" height="99" transform="matrix(0.866044 0.499967 -0.866044 0.499967 866.497 -24.6183)" stroke="#141414" stroke-opacity="0.1"/>
<rect y="0.499967" width="99" height="99" transform="matrix(0.866044 0.499967 -0.866044 0.499967 953.102 25.3784)" stroke="#141414" stroke-opacity="0.1"/>
<rect y="0.499967" width="99" height="99" transform="matrix(0.866044 0.499967 -0.866044 0.499967 1039.71 75.3751)" stroke="#141414" stroke-opacity="0.1"/>
<rect y="0.499967" width="99" height="99" transform="matrix(0.866044 0.499967 -0.866044 0.499967 1126.31 125.372)" stroke="#141414" stroke-opacity="0.1"/>
<rect y="0.499967" width="99" height="99" transform="matrix(0.866044 0.499967 -0.866044 0.499967 606.684 -74.6151)" stroke="#141414" stroke-opacity="0.1"/>
<rect y="0.499967" width="99" height="99" transform="matrix(0.866044 0.499967 -0.866044 0.499967 693.288 -24.6184)" stroke="#141414" stroke-opacity="0.1"/>
<rect y="0.499967" width="99" height="99" transform="matrix(0.866044 0.499967 -0.866044 0.499967 779.893 25.3784)" stroke="#141414" stroke-opacity="0.1"/>
<rect y="0.499967" width="99" height="99" transform="matrix(0.866044 0.499967 -0.866044 0.499967 866.497 75.3751)" stroke="#141414" stroke-opacity="0.1"/>
<rect y="0.499967" width="99" height="99" transform="matrix(0.866044 0.499967 -0.866044 0.499967 953.101 125.372)" stroke="#141414" stroke-opacity="0.1"/>
<rect y="0.499967" width="99" height="99" transform="matrix(0.866044 0.499967 -0.866044 0.499967 1039.71 175.369)" stroke="#141414" stroke-opacity="0.1"/>
<rect y="0.499967" width="99" height="99" transform="matrix(0.866044 0.499967 -0.866044 0.499967 1126.31 225.365)" stroke="#141414" stroke-opacity="0.1"/>
<rect y="0.499967" width="99" height="99" transform="matrix(0.866044 0.499967 -0.866044 0.499967 433.475 -74.6151)" stroke="#141414" stroke-opacity="0.1"/>
<rect y="0.499967" width="99" height="99" transform="matrix(0.866044 0.499967 -0.866044 0.499967 520.079 -24.6184)" stroke="#141414" stroke-opacity="0.1"/>
<rect y="0.499967" width="99" height="99" transform="matrix(0.866044 0.499967 -0.866044 0.499967 606.684 25.3784)" stroke="#141414" stroke-opacity="0.1"/>
<rect y="0.499967" width="99" height="99" transform="matrix(0.866044 0.499967 -0.866044 0.499967 693.288 75.3751)" stroke="#141414" stroke-opacity="0.1"/>
<rect y="0.499967" width="99" height="99" transform="matrix(0.866044 0.499967 -0.866044 0.499967 779.893 125.372)" stroke="#141414" stroke-opacity="0.1"/>
<rect y="0.499967" width="99" height="99" transform="matrix(0.866044 0.499967 -0.866044 0.499967 866.497 175.369)" stroke="#141414" stroke-opacity="0.1"/>
<rect y="0.499967" width="99" height="99" transform="matrix(0.866044 0.499967 -0.866044 0.499967 953.102 225.365)" stroke="#141414" stroke-opacity="0.1"/>
<rect y="0.499967" width="99" height="99" transform="matrix(0.866044 0.499967 -0.866044 0.499967 1039.71 275.362)" stroke="#141414" stroke-opacity="0.1"/>
<rect y="0.499967" width="99" height="99" transform="matrix(0.866044 0.499967 -0.866044 0.499967 1126.31 325.359)" stroke="#141414" stroke-opacity="0.1"/>
<rect y="0.499967" width="99" height="99" transform="matrix(0.866044 0.499967 -0.866044 0.499967 260.266 -74.6151)" stroke="#141414" stroke-opacity="0.1"/>
<rect y="0.499967" width="99" height="99" transform="matrix(0.866044 0.499967 -0.866044 0.499967 346.871 -24.6184)" stroke="#141414" stroke-opacity="0.1"/>
<rect y="0.499967" width="99" height="99" transform="matrix(0.866044 0.499967 -0.866044 0.499967 433.475 25.3784)" stroke="#141414" stroke-opacity="0.1"/>
<rect y="0.499967" width="99" height="99" transform="matrix(0.866044 0.499967 -0.866044 0.499967 520.079 75.3751)" stroke="#141414" stroke-opacity="0.1"/>
<rect y="0.499967" width="99" height="99" transform="matrix(0.866044 0.499967 -0.866044 0.499967 606.684 125.372)" stroke="#141414" stroke-opacity="0.1"/>
<rect y="0.499967" width="99" height="99" transform="matrix(0.866044 0.499967 -0.866044 0.499967 693.288 175.369)" stroke="#141414" stroke-opacity="0.1"/>
<rect y="0.499967" width="99" height="99" transform="matrix(0.866044 0.499967 -0.866044 0.499967 779.893 225.365)" stroke="#141414" stroke-opacity="0.1"/>
<rect y="0.499967" width="99" height="99" transform="matrix(0.866044 0.499967 -0.866044 0.499967 866.497 275.362)" stroke="#141414" stroke-opacity="0.1"/>
<rect y="0.499967" width="99" height="99" transform="matrix(0.866044 0.499967 -0.866044 0.499967 953.102 325.359)" stroke="#141414" stroke-opacity="0.1"/>
<rect y="0.499967" width="99" height="99" transform="matrix(0.866044 0.499967 -0.866044 0.499967 1039.71 375.356)" stroke="#141414" stroke-opacity="0.1"/>
<rect y="0.499967" width="99" height="99" transform="matrix(0.866044 0.499967 -0.866044 0.499967 1126.31 425.352)" stroke="#141414" stroke-opacity="0.1"/>
<rect y="0.499967" width="99" height="99" transform="matrix(0.866044 0.499967 -0.866044 0.499967 173.662 -24.6184)" stroke="#141414" stroke-opacity="0.1"/>
<rect y="0.499967" width="99" height="99" transform="matrix(0.866044 0.499967 -0.866044 0.499967 260.266 25.3784)" stroke="#141414" stroke-opacity="0.1"/>
<rect y="0.499967" width="99" height="99" transform="matrix(0.866044 0.499967 -0.866044 0.499967 346.87 75.3751)" stroke="#141414" stroke-opacity="0.1"/>
<rect y="0.499967" width="99" height="99" transform="matrix(0.866044 0.499967 -0.866044 0.499967 433.475 125.372)" stroke="#141414" stroke-opacity="0.1"/>
<rect y="0.499967" width="99" height="99" transform="matrix(0.866044 0.499967 -0.866044 0.499967 520.079 175.369)" stroke="#141414" stroke-opacity="0.1"/>
<rect y="0.499967" width="99" height="99" transform="matrix(0.866044 0.499967 -0.866044 0.499967 606.684 225.365)" stroke="#141414" stroke-opacity="0.1"/>
<rect y="0.499967" width="99" height="99" transform="matrix(0.866044 0.499967 -0.866044 0.499967 693.288 275.362)" stroke="#141414" stroke-opacity="0.1"/>
<rect y="0.499967" width="99" height="99" transform="matrix(0.866044 0.499967 -0.866044 0.499967 779.893 325.359)" stroke="#141414" stroke-opacity="0.1"/>
<rect y="0.499967" width="99" height="99" transform="matrix(0.866044 0.499967 -0.866044 0.499967 866.497 375.356)" stroke="#141414" stroke-opacity="0.1"/>
<rect y="0.499967" width="99" height="99" transform="matrix(0.866044 0.499967 -0.866044 0.499967 953.102 425.352)" stroke="#141414" stroke-opacity="0.1"/>
<rect y="0.499967" width="99" height="99" transform="matrix(0.866044 0.499967 -0.866044 0.499967 1039.71 475.349)" stroke="#141414" stroke-opacity="0.1"/>
<rect y="0.499967" width="99" height="99" transform="matrix(0.866044 0.499967 -0.866044 0.499967 1126.31 525.346)" stroke="#141414" stroke-opacity="0.1"/>
<rect y="0.499967" width="99" height="99" transform="matrix(0.866044 0.499967 -0.866044 0.499967 87.0573 25.3784)" stroke="#141414" stroke-opacity="0.1"/>
<rect y="0.499967" width="99" height="99" transform="matrix(0.866044 0.499967 -0.866044 0.499967 173.662 75.3751)" stroke="#141414" stroke-opacity="0.1"/>
<rect y="0.499967" width="99" height="99" transform="matrix(0.866044 0.499967 -0.866044 0.499967 260.266 125.372)" stroke="#141414" stroke-opacity="0.1"/>
<rect y="0.499967" width="99" height="99" transform="matrix(0.866044 0.499967 -0.866044 0.499967 346.87 175.369)" stroke="#141414" stroke-opacity="0.1"/>
<rect y="0.499967" width="99" height="99" transform="matrix(0.866044 0.499967 -0.866044 0.499967 433.475 225.365)" stroke="#141414" stroke-opacity="0.1"/>
<rect y="0.499967" width="99" height="99" transform="matrix(0.866044 0.499967 -0.866044 0.499967 520.079 275.362)" stroke="#141414" stroke-opacity="0.1"/>
<rect y="0.499967" width="99" height="99" transform="matrix(0.866044 0.499967 -0.866044 0.499967 606.684 325.359)" stroke="#141414" stroke-opacity="0.1"/>
<rect y="0.499967" width="99" height="99" transform="matrix(0.866044 0.499967 -0.866044 0.499967 693.288 375.356)" stroke="#141414" stroke-opacity="0.1"/>
<rect y="0.499967" width="99" height="99" transform="matrix(0.866044 0.499967 -0.866044 0.499967 779.893 425.352)" stroke="#141414" stroke-opacity="0.1"/>
<rect y="0.499967" width="99" height="99" transform="matrix(0.866044 0.499967 -0.866044 0.499967 866.497 475.349)" stroke="#141414" stroke-opacity="0.1"/>
<rect y="0.499967" width="99" height="99" transform="matrix(0.866044 0.499967 -0.866044 0.499967 953.101 525.346)" stroke="#141414" stroke-opacity="0.1"/>
<rect y="0.499967" width="99" height="99" transform="matrix(0.866044 0.499967 -0.866044 0.499967 1039.71 575.343)" stroke="#141414" stroke-opacity="0.1"/>
</g>
</svg>
